<svg xmlns="http://www.w3.org/2000/svg" xmlns:xlink="http://www.w3.org/1999/xlink" width="1000" zoomAndPan="magnify" viewBox="0 0 750 599.999999" height="800" preserveAspectRatio="xMidYMid meet" version="1.0"><defs><g/><clipPath id="7bd3ab4fe6"><path d="M 509 156 L 635 156 L 635 282 L 509 282 Z M 509 156 " clip-rule="nonzero"/></clipPath><clipPath id="aca28ca9fa"><path d="M 526.605469 142.839844 L 647.894531 174.082031 L 616.652344 295.375 L 495.359375 264.132812 Z M 526.605469 142.839844 " clip-rule="nonzero"/></clipPath><clipPath id="32db4e3f26"><path d="M 526.605469 142.839844 L 647.597656 174.007812 L 616.433594 295.003906 L 495.4375 263.835938 Z M 526.605469 142.839844 " clip-rule="nonzero"/></clipPath><clipPath id="caca290631"><path d="M 587.101562 158.425781 C 553.691406 149.816406 519.625 169.925781 511.019531 203.339844 C 502.414062 236.75 522.523438 270.8125 555.933594 279.421875 C 589.347656 288.027344 623.410156 267.917969 632.015625 234.503906 C 640.621094 201.09375 620.511719 167.03125 587.101562 158.425781 Z M 587.101562 158.425781 " clip-rule="nonzero"/></clipPath><clipPath id="cb7a0b8536"><path d="M 513 213 L 617 213 L 617 290 L 513 290 Z M 513 213 " clip-rule="nonzero"/></clipPath><clipPath id="1f7bfbe269"><path d="M 520.722656 195.886719 L 624.1875 240.058594 L 600.332031 295.929688 L 496.867188 251.757812 Z M 520.722656 195.886719 " clip-rule="nonzero"/></clipPath><clipPath id="5fd24224bb"><path d="M 520.722656 195.886719 L 624.1875 240.058594 L 600.332031 295.929688 L 496.867188 251.757812 Z M 520.722656 195.886719 " clip-rule="nonzero"/></clipPath><clipPath id="453c90e717"><path d="M 520.722656 195.886719 L 624.132812 240.035156 L 600.347656 295.746094 L 496.9375 251.597656 Z M 520.722656 195.886719 " clip-rule="nonzero"/></clipPath></defs><g fill="#000000" fill-opacity="1"><g transform="translate(152.945751, 329.769075)"><g><path d="M 38.640625 0 L 4.359375 0 L 4.359375 -97.84375 L 38.640625 -97.84375 Z M 41.484375 -97.84375 L 75.34375 -97.84375 L 75.34375 -60.140625 Z M 62.453125 -30.765625 L 41.078125 -50.9375 L 62.453125 -71.109375 Z M 41.484375 0 L 75.875 -44.0625 L 75.875 0 Z M 41.484375 0 "/></g></g></g><g fill="#000000" fill-opacity="1"><g transform="translate(232.590268, 329.769075)"><g><path d="M 39.828125 -97.25 L 66.8125 -97.25 L 66.8125 0 L 39.828125 0 Z M 32.21875 -69.65625 L 32.21875 0 C 22.5625 -0.96875 15.097656 -4.484375 9.828125 -10.546875 C 4.554688 -16.609375 1.921875 -24.734375 1.921875 -34.921875 C 1.921875 -44.984375 4.578125 -53.066406 9.890625 -59.171875 C 15.203125 -65.285156 22.644531 -68.78125 32.21875 -69.65625 Z M 32.21875 -69.65625 "/></g></g></g><g fill="#000000" fill-opacity="1"><g transform="translate(303.172243, 329.769075)"><g><path d="M 39.5625 0 L 22.890625 0 L -2.578125 -69.65625 L 26.984375 -69.65625 L 45.78125 -16.9375 Z M 49.609375 -27.921875 L 34.53125 -69.65625 L 65.828125 -69.65625 Z M 49.609375 -27.921875 "/></g></g></g><g fill="#000000" fill-opacity="1"><g transform="translate(366.543877, 329.769075)"><g><path d="M 32.21875 1.1875 C 22.601562 0.394531 15.148438 -3.140625 9.859375 -9.421875 C 4.566406 -15.710938 1.921875 -24.128906 1.921875 -34.671875 C 1.921875 -45.296875 4.554688 -53.75 9.828125 -60.03125 C 15.097656 -66.320312 22.5625 -69.925781 32.21875 -70.84375 Z M 39.828125 1.1875 L 39.828125 -70.84375 C 49.566406 -69.925781 57.082031 -66.3125 62.375 -60 C 67.675781 -53.695312 70.328125 -45.253906 70.328125 -34.671875 C 70.328125 -24.171875 67.65625 -15.785156 62.3125 -9.515625 C 56.976562 -3.253906 49.484375 0.3125 39.828125 1.1875 Z M 39.828125 1.1875 "/></g></g></g><g fill="#000000" fill-opacity="1"><g transform="translate(438.647302, 329.769075)"><g><path d="M 30.765625 -69.65625 L 30.765625 0 L 3.765625 0 L 3.765625 -69.65625 Z M 60.859375 -57.421875 C 60.859375 -53.710938 59.523438 -50.535156 56.859375 -47.890625 C 54.191406 -45.242188 51.003906 -43.921875 47.296875 -43.921875 C 43.640625 -43.921875 40.488281 -45.253906 37.84375 -47.921875 C 35.195312 -50.597656 33.875 -53.765625 33.875 -57.421875 C 33.875 -61.035156 35.207031 -64.175781 37.875 -66.84375 C 40.539062 -69.507812 43.679688 -70.84375 47.296875 -70.84375 C 50.960938 -70.84375 54.140625 -69.519531 56.828125 -66.875 C 59.515625 -64.226562 60.859375 -61.078125 60.859375 -57.421875 Z M 60.859375 -57.421875 "/></g></g></g><g fill="#000000" fill-opacity="1"><g transform="translate(500.695937, 329.769075)"><g><path d="M 37.640625 0 L 37.640625 -49.875 C 37.640625 -55.476562 37.03125 -59.625 35.8125 -62.3125 C 34.601562 -65.007812 32.457031 -67.414062 29.375 -69.53125 C 32.195312 -70.007812 34.53125 -70.347656 36.375 -70.546875 C 38.226562 -70.742188 39.84375 -70.84375 41.21875 -70.84375 C 48.882812 -70.84375 54.59375 -68.710938 58.34375 -64.453125 C 62.09375 -60.203125 63.96875 -53.710938 63.96875 -44.984375 L 63.96875 0 Z M 5.03125 -55.828125 C 5.03125 -59.578125 6.382812 -62.816406 9.09375 -65.546875 C 11.8125 -68.285156 15.066406 -69.65625 18.859375 -69.65625 C 22.609375 -69.65625 25.847656 -68.285156 28.578125 -65.546875 C 31.316406 -62.816406 32.6875 -59.578125 32.6875 -55.828125 C 32.6875 -51.992188 31.328125 -48.707031 28.609375 -45.96875 C 25.898438 -43.238281 22.648438 -41.875 18.859375 -41.875 C 15.015625 -41.875 11.75 -43.238281 9.0625 -45.96875 C 6.375 -48.707031 5.03125 -51.992188 5.03125 -55.828125 Z M 29.5 0 C 29.101562 0.0390625 28.648438 0.0703125 28.140625 0.09375 C 27.640625 0.113281 26.925781 0.125 26 0.125 C 18.101562 0.125 12.070312 -1.546875 7.90625 -4.890625 C 3.738281 -8.242188 1.65625 -13.078125 1.65625 -19.390625 C 1.65625 -25.773438 3.71875 -30.644531 7.84375 -34 C 11.96875 -37.351562 17.972656 -39.03125 25.859375 -39.03125 C 26.878906 -39.03125 27.628906 -39.019531 28.109375 -39 C 28.597656 -38.976562 29.0625 -38.945312 29.5 -38.90625 Z M 29.5 0 "/></g></g></g><g clip-path="url(#7bd3ab4fe6)"><g clip-path="url(#aca28ca9fa)"><g clip-path="url(#32db4e3f26)"><g clip-path="url(#caca290631)"><path stroke-linecap="butt" transform="matrix(0.726292, 0.187081, -0.187081, 0.726292, 526.603682, 142.841102)" fill="none" stroke-linejoin="miter" d="M 83.297335 0.00179326 C 37.295211 -0.00266246 -0.00271134 37.292403 -0.000824185 83.298271 C -0.000236205 129.299096 37.29353 166.591975 83.295654 166.59643 C 129.301522 166.594543 166.594401 129.300777 166.592514 83.294909 C 166.591926 37.294084 129.298159 0.00120528 83.297335 0.00179326 Z M 83.297335 0.00179326 " stroke="#ffffff" stroke-width="8" stroke-opacity="1" stroke-miterlimit="4"/></g></g></g></g><g clip-path="url(#cb7a0b8536)"><g clip-path="url(#1f7bfbe269)"><g clip-path="url(#5fd24224bb)"><g clip-path="url(#453c90e717)"><path fill="#10f2c5" d="M 532.128906 235.632812 L 555.707031 257.128906 L 587.539062 259.292969 L 580.390625 276.03125 C 578.160156 281.261719 563.945312 280.203125 548.644531 273.671875 C 533.34375 267.136719 522.746094 257.605469 524.980469 252.375 Z M 572.429688 217.960938 L 616.429688 258.078125 L 607.644531 257.480469 L 601.316406 272.300781 L 601.503906 272.460938 C 602.445312 273.4375 602.765625 274.914062 602.199219 276.238281 C 601.824219 277.121094 601.125 277.769531 600.300781 278.097656 L 600.230469 278.117188 L 597.542969 289.355469 L 589.550781 285.945312 L 595.8125 276.230469 L 595.777344 276.167969 C 595.445312 275.34375 595.429688 274.390625 595.808594 273.507812 C 596.371094 272.1875 597.664062 271.394531 599.015625 271.398438 L 599.261719 271.421875 L 605.28125 257.320312 L 557.023438 254.042969 L 513.019531 213.925781 Z M 572.429688 217.960938 " fill-opacity="1" fill-rule="evenodd"/></g></g></g></g></svg>