<svg xmlns="http://www.w3.org/2000/svg" xmlns:xlink="http://www.w3.org/1999/xlink" width="1000" zoomAndPan="magnify" viewBox="0 0 750 599.999999" height="800" preserveAspectRatio="xMidYMid meet" version="1.0"><defs><g/><clipPath id="7254578916"><path d="M 513 214 L 617 214 L 617 290 L 513 290 Z M 513 214 " clip-rule="nonzero"/></clipPath><clipPath id="fae2747c57"><path d="M 520.761719 196.269531 L 624.226562 240.441406 L 600.371094 296.3125 L 496.90625 252.140625 Z M 520.761719 196.269531 " clip-rule="nonzero"/></clipPath><clipPath id="2c156e2449"><path d="M 520.761719 196.269531 L 624.226562 240.441406 L 600.371094 296.3125 L 496.90625 252.140625 Z M 520.761719 196.269531 " clip-rule="nonzero"/></clipPath><clipPath id="c071d5c100"><path d="M 520.761719 196.269531 L 624.226562 240.441406 L 600.371094 296.3125 L 496.90625 252.140625 Z M 520.761719 196.269531 " clip-rule="nonzero"/></clipPath><clipPath id="c99e9cb1b5"><path d="M 520.761719 196.269531 L 624.226562 240.441406 L 600.371094 296.3125 L 496.90625 252.140625 Z M 520.761719 196.269531 " clip-rule="nonzero"/></clipPath><clipPath id="b293f0afd9"><path d="M 509 157 L 635 157 L 635 283 L 509 283 Z M 509 157 " clip-rule="nonzero"/></clipPath><clipPath id="e03720997c"><path d="M 526.964844 143.972656 L 648.257812 175.214844 L 617.015625 296.507812 L 495.722656 265.265625 Z M 526.964844 143.972656 " clip-rule="nonzero"/></clipPath><clipPath id="b6ededf904"><path d="M 526.964844 143.972656 L 647.960938 175.140625 L 616.796875 296.136719 L 495.800781 264.96875 Z M 526.964844 143.972656 " clip-rule="nonzero"/></clipPath><clipPath id="93856176cb"><path d="M 587.464844 159.558594 C 554.050781 150.949219 519.988281 171.058594 511.382812 204.472656 C 502.777344 237.882812 522.886719 271.945312 556.296875 280.554688 C 589.710938 289.160156 623.773438 269.050781 632.378906 235.636719 C 640.984375 202.226562 620.875 168.164062 587.464844 159.558594 Z M 587.464844 159.558594 " clip-rule="nonzero"/></clipPath><clipPath id="d4438e6497"><path d="M 513 214 L 617 214 L 617 290 L 513 290 Z M 513 214 " clip-rule="nonzero"/></clipPath><clipPath id="8a6ffbd3cd"><path d="M 520.761719 196.269531 L 624.226562 240.441406 L 600.371094 296.3125 L 496.90625 252.140625 Z M 520.761719 196.269531 " clip-rule="nonzero"/></clipPath><clipPath id="a90d93e579"><path d="M 520.761719 196.269531 L 624.226562 240.441406 L 600.371094 296.3125 L 496.90625 252.140625 Z M 520.761719 196.269531 " clip-rule="nonzero"/></clipPath><clipPath id="b439d6b7ec"><path d="M 520.761719 196.269531 L 624.171875 240.417969 L 600.386719 296.128906 L 496.976562 251.980469 Z M 520.761719 196.269531 " clip-rule="nonzero"/></clipPath></defs><g fill="#000000" fill-opacity="1"><g transform="translate(152.945751, 329.769075)"><g><path d="M 38.640625 0 L 4.359375 0 L 4.359375 -97.84375 L 38.640625 -97.84375 Z M 41.484375 -97.84375 L 75.34375 -97.84375 L 75.34375 -60.140625 Z M 62.453125 -30.765625 L 41.078125 -50.9375 L 62.453125 -71.109375 Z M 41.484375 0 L 75.875 -44.0625 L 75.875 0 Z M 41.484375 0 "/></g></g></g><g fill="#000000" fill-opacity="1"><g transform="translate(232.590268, 329.769075)"><g><path d="M 39.828125 -97.25 L 66.8125 -97.25 L 66.8125 0 L 39.828125 0 Z M 32.21875 -69.65625 L 32.21875 0 C 22.5625 -0.96875 15.097656 -4.484375 9.828125 -10.546875 C 4.554688 -16.609375 1.921875 -24.734375 1.921875 -34.921875 C 1.921875 -44.984375 4.578125 -53.066406 9.890625 -59.171875 C 15.203125 -65.285156 22.644531 -68.78125 32.21875 -69.65625 Z M 32.21875 -69.65625 "/></g></g></g><g fill="#000000" fill-opacity="1"><g transform="translate(303.172243, 329.769075)"><g><path d="M 39.5625 0 L 22.890625 0 L -2.578125 -69.65625 L 26.984375 -69.65625 L 45.78125 -16.9375 Z M 49.609375 -27.921875 L 34.53125 -69.65625 L 65.828125 -69.65625 Z M 49.609375 -27.921875 "/></g></g></g><g fill="#000000" fill-opacity="1"><g transform="translate(366.543877, 329.769075)"><g><path d="M 32.21875 1.1875 C 22.601562 0.394531 15.148438 -3.140625 9.859375 -9.421875 C 4.566406 -15.710938 1.921875 -24.128906 1.921875 -34.671875 C 1.921875 -45.296875 4.554688 -53.75 9.828125 -60.03125 C 15.097656 -66.320312 22.5625 -69.925781 32.21875 -70.84375 Z M 39.828125 1.1875 L 39.828125 -70.84375 C 49.566406 -69.925781 57.082031 -66.3125 62.375 -60 C 67.675781 -53.695312 70.328125 -45.253906 70.328125 -34.671875 C 70.328125 -24.171875 67.65625 -15.785156 62.3125 -9.515625 C 56.976562 -3.253906 49.484375 0.3125 39.828125 1.1875 Z M 39.828125 1.1875 "/></g></g></g><g fill="#000000" fill-opacity="1"><g transform="translate(438.647302, 329.769075)"><g><path d="M 30.765625 -69.65625 L 30.765625 0 L 3.765625 0 L 3.765625 -69.65625 Z M 60.859375 -57.421875 C 60.859375 -53.710938 59.523438 -50.535156 56.859375 -47.890625 C 54.191406 -45.242188 51.003906 -43.921875 47.296875 -43.921875 C 43.640625 -43.921875 40.488281 -45.253906 37.84375 -47.921875 C 35.195312 -50.597656 33.875 -53.765625 33.875 -57.421875 C 33.875 -61.035156 35.207031 -64.175781 37.875 -66.84375 C 40.539062 -69.507812 43.679688 -70.84375 47.296875 -70.84375 C 50.960938 -70.84375 54.140625 -69.519531 56.828125 -66.875 C 59.515625 -64.226562 60.859375 -61.078125 60.859375 -57.421875 Z M 60.859375 -57.421875 "/></g></g></g><g fill="#000000" fill-opacity="1"><g transform="translate(500.695937, 329.769075)"><g><path d="M 37.640625 0 L 37.640625 -49.875 C 37.640625 -55.476562 37.03125 -59.625 35.8125 -62.3125 C 34.601562 -65.007812 32.457031 -67.414062 29.375 -69.53125 C 32.195312 -70.007812 34.53125 -70.347656 36.375 -70.546875 C 38.226562 -70.742188 39.84375 -70.84375 41.21875 -70.84375 C 48.882812 -70.84375 54.59375 -68.710938 58.34375 -64.453125 C 62.09375 -60.203125 63.96875 -53.710938 63.96875 -44.984375 L 63.96875 0 Z M 5.03125 -55.828125 C 5.03125 -59.578125 6.382812 -62.816406 9.09375 -65.546875 C 11.8125 -68.285156 15.066406 -69.65625 18.859375 -69.65625 C 22.609375 -69.65625 25.847656 -68.285156 28.578125 -65.546875 C 31.316406 -62.816406 32.6875 -59.578125 32.6875 -55.828125 C 32.6875 -51.992188 31.328125 -48.707031 28.609375 -45.96875 C 25.898438 -43.238281 22.648438 -41.875 18.859375 -41.875 C 15.015625 -41.875 11.75 -43.238281 9.0625 -45.96875 C 6.375 -48.707031 5.03125 -51.992188 5.03125 -55.828125 Z M 29.5 0 C 29.101562 0.0390625 28.648438 0.0703125 28.140625 0.09375 C 27.640625 0.113281 26.925781 0.125 26 0.125 C 18.101562 0.125 12.070312 -1.546875 7.90625 -4.890625 C 3.738281 -8.242188 1.65625 -13.078125 1.65625 -19.390625 C 1.65625 -25.773438 3.71875 -30.644531 7.84375 -34 C 11.96875 -37.351562 17.972656 -39.03125 25.859375 -39.03125 C 26.878906 -39.03125 27.628906 -39.019531 28.109375 -39 C 28.597656 -38.976562 29.0625 -38.945312 29.5 -38.90625 Z M 29.5 0 "/></g></g></g><g clip-path="url(#7254578916)"><g clip-path="url(#fae2747c57)"><g clip-path="url(#2c156e2449)"><g clip-path="url(#c071d5c100)"><g clip-path="url(#c99e9cb1b5)"><path fill="#000000" d="M 532.140625 236.109375 L 555.722656 257.636719 L 587.582031 259.777344 L 580.414062 276.566406 C 578.175781 281.808594 563.949219 280.761719 548.640625 274.226562 C 533.332031 267.691406 522.734375 258.140625 524.972656 252.894531 Z M 572.492188 218.355469 L 616.5 258.535156 L 607.707031 257.945312 L 601.363281 272.808594 L 601.550781 272.96875 C 602.492188 273.945312 602.808594 275.425781 602.242188 276.753906 C 601.863281 277.640625 601.164062 278.289062 600.335938 278.621094 L 600.269531 278.640625 L 597.570312 289.910156 L 589.574219 286.496094 L 595.847656 276.753906 L 595.8125 276.691406 C 595.480469 275.863281 595.46875 274.910156 595.847656 274.023438 C 596.414062 272.695312 597.703125 271.902344 599.058594 271.902344 L 599.304688 271.929688 L 605.34375 257.785156 L 557.042969 254.542969 L 513.035156 214.363281 Z M 572.492188 218.355469 " fill-opacity="1" fill-rule="evenodd"/></g></g></g></g></g><g clip-path="url(#b293f0afd9)"><g clip-path="url(#e03720997c)"><g clip-path="url(#b6ededf904)"><g clip-path="url(#93856176cb)"><path stroke-linecap="butt" transform="matrix(0.726292, 0.187081, -0.187081, 0.726292, 526.96673, 143.973748)" fill="none" stroke-linejoin="miter" d="M 83.297691 0.00193021 C 37.290524 -0.00122633 -0.00235489 37.29254 -0.000467736 83.298408 C 0.000120243 129.299233 37.293887 166.592112 83.29601 166.596567 C 129.301878 166.59468 166.594757 129.300914 166.59287 83.295046 C 166.592282 37.294221 129.298516 0.00134223 83.297691 0.00193021 Z M 83.297691 0.00193021 " stroke="#ffffff" stroke-width="8" stroke-opacity="1" stroke-miterlimit="4"/></g></g></g></g><g clip-path="url(#d4438e6497)"><g clip-path="url(#8a6ffbd3cd)"><g clip-path="url(#a90d93e579)"><g clip-path="url(#b439d6b7ec)"><path fill="#10f2c5" d="M 532.164062 236.015625 L 555.746094 257.511719 L 587.578125 259.675781 L 580.429688 276.414062 C 578.199219 281.644531 563.984375 280.585938 548.683594 274.054688 C 533.382812 267.519531 522.785156 257.984375 525.019531 252.757812 Z M 572.464844 218.34375 L 616.46875 258.460938 L 607.683594 257.863281 L 601.355469 272.683594 L 601.542969 272.84375 C 602.484375 273.816406 602.804688 275.296875 602.238281 276.621094 C 601.863281 277.503906 601.164062 278.148438 600.335938 278.480469 L 600.269531 278.5 L 597.582031 289.738281 L 589.589844 286.328125 L 595.851562 276.613281 L 595.816406 276.550781 C 595.484375 275.726562 595.46875 274.773438 595.847656 273.890625 C 596.410156 272.566406 597.703125 271.777344 599.054688 271.78125 L 599.300781 271.804688 L 605.320312 257.703125 L 557.0625 254.425781 L 513.058594 214.308594 Z M 572.464844 218.34375 " fill-opacity="1" fill-rule="evenodd"/></g></g></g></g></svg>